PathFileType	4	(x/y/z)	S02_PSF_T02
DataRate	CameraRate	NumFrames	NumMarkers	Units	OrigDataRate	OrigDataStartFrame	OrigNumFrames
240	240	5	51	mm	240	52	410
Frame#	Time	Sternum			R.Acromium			L.Acromium			Top.Head			R.ASIS			L.ASIS			R.PSIS			L.PSIS			R.Great.Tro			L.Great.Tro			R.Iliac.Crest			L.Iliac.Crest			V.Sacral			R.Thigh.Upper.Post			R.Thigh.Lower.Ant			R.Thigh.Lower.Post			R.Thigh.Upper.Ant			R.Knee.Lat			R.Knee.Med			R.Shank.Upper.Post			R.Shank.Lower.Ant			R.Shank.Lower.Post			R.Shank.Upper.Ant			R.Ankle.Lat			R.Ankle.Med			R.Heel.Upper			R.Heel.Med			R.Heel.Lat			R.Toe.Lat			R.Toe.Med			R.Toe.Tip			L.Thigh.Upper.Post			L.Thigh.Lower.Ant			L.Thigh.Lower.Post			L.Thigh.Upper.Ant			L.Knee.Lat			L.Knee.Med			L.Shank.Upper.Post			L.Shank.Lower.Ant			L.Shank.Lower.Post			L.Shank.Upper.Ant			L.Ankle.Lat			L.Ankle.Med			L.Heel.Upper			L.Heel.Med			L.Heel.Lat			L.Toe.Lat			L.Toe.Med			L.Toe.Tip			Cervical.Spine			Back			
		X1	Y1	Z1	X2	Y2	Z2	X3	Y3	Z3	X4	Y4	Z4	X5	Y5	Z5	X6	Y6	Z6	X7	Y7	Z7	X8	Y8	Z8	X9	Y9	Z9	X10	Y10	Z10	X11	Y11	Z11	X12	Y12	Z12	X13	Y13	Z13	X14	Y14	Z14	X15	Y15	Z15	X16	Y16	Z16	X17	Y17	Z17	X18	Y18	Z18	X19	Y19	Z19	X20	Y20	Z20	X21	Y21	Z21	X22	Y22	Z22	X23	Y23	Z23	X24	Y24	Z24	X25	Y25	Z25	X26	Y26	Z26	X27	Y27	Z27	X28	Y28	Z28	X29	Y29	Z29	X30	Y30	Z30	X31	Y31	Z31	X32	Y32	Z32	X33	Y33	Z33	X34	Y34	Z34	X35	Y35	Z35	X36	Y36	Z36	X37	Y37	Z37	X38	Y38	Z38	X39	Y39	Z39	X40	Y40	Z40	X41	Y41	Z41	X42	Y42	Z42	X43	Y43	Z43	X44	Y44	Z44	X45	Y45	Z45	X46	Y46	Z46	X47	Y47	Z47	X48	Y48	Z48	X49	Y49	Z49	X50	Y50	Z50	X51	Y51	Z51	

52	0.2125	-1126.4	1086.2	290.65	-1229.9	1323.4	430.87	-1247.9	1320	139.19	-1211.3	1611.8	276.94	-1171.1	906.35	407.37	-1153	910.78	198.49	-1376.2	948.5	347.8	-1385.2	961.57	274.02	-1253.1	769.54	495	-1256.1	815.75	103.68	-1272.6	949.52	464.7	-1275.9	963.69	131.43	-1408.5	909.26	301.05	-1269.9	582.26	486.1	-1209.9	495.75	464.44	-1281.4	491.74	470.43	-1195.8	584.13	476.01	-1280.4	415.27	465.93	-1262.5	393.98	321.25	-1472.8	347.98	440.12	-1504.6	243.68	426.58	-1536.7	302.39	430.27	-1443.7	282.03	444.03	-1597.5	232.4	418.88	-1570.6	232.08	336.27	-1624.3	285.39	364.55	-1643.4	267.09	331.11	-1659.9	270.34	394.68	-1616.3	110.64	426.76	-1598.6	90.109	321.92	-1561.5	52.219	376.25	-1222.3	589.57	130.98	-1124.8	538.41	144.33	-1196.4	505.92	158.65	-1160	623.74	118.72	-1119.5	455.6	159.34	-1124.4	459.67	296.63	-1190.9	281.88	161.56	-1121	197.69	184.42	-1194.4	209.53	180.36	-1127.4	271.41	165.87	-1168.2	98.059	199.48	-1158.8	94.864	280.13	-1228.1	66.336	231.36	-1221	40.866	265.26	-1220.4	38.095	203.72	-1052.9	34.897	181.33	-1037	44.658	292.24	-974.73	60.948	247.22	-1326.1	1385	291.06	-1394.2	1133.4	312.3
53	0.21667	-1121	1087.3	290.69	-1224.9	1324.6	430.62	-1242.2	1320.8	138.78	-1205.7	1612.8	276.32	-1165.7	907.47	407.11	-1147.6	911.74	198.18	-1371	949.26	347.41	-1380	962.42	273.67	-1247.2	770.58	494.76	-1251.2	816.68	103.39	-1267.5	950.24	464.37	-1270.6	964.76	131.19	-1403.3	910	300.61	-1260.6	583	486.45	-1200.3	497.38	465.49	-1271.9	492.47	471	-1187.5	585.93	476.88	-1269.2	416.17	466.79	-1250.5	394.66	322.02	-1461.3	349.69	440.29	-1493.3	245.23	426.65	-1526	304.04	430.04	-1432.9	283.61	444.44	-1586.5	234.7	418.65	-1559.2	233.93	336.09	-1612.6	287.69	363.81	-1631.7	269.43	330.37	-1648.9	273.09	393.98	-1606.3	113.18	427.17	-1588	91.673	322.65	-1551.7	53.191	377.52	-1219.2	590.23	130.87	-1122.1	538.27	144.06	-1193.9	506.35	158.47	-1156.6	623.86	118.45	-1117.5	455.34	159.09	-1122.7	459.41	296.38	-1189.8	282.15	161.49	-1120.3	197.53	184.27	-1193.5	209.96	180.08	-1126.5	271.28	165.71	-1168.1	98.142	199.5	-1158.7	94.904	280.06	-1228	66.402	231.38	-1221	40.929	265.27	-1220.4	38.185	203.72	-1052.9	34.928	181.33	-1036.9	44.659	292.27	-974.68	60.862	247.23	-1320.7	1386	290.45	-1388.8	1134.3	311.64
54	0.22083	-1115.6	1088.4	290.76	-1220	1325.8	430.43	-1236.6	1321.7	138.4	-1200.2	1613.8	275.72	-1160.3	908.61	406.84	-1142.3	912.67	197.89	-1365.9	950.08	347.01	-1374.8	963.3	273.3	-1241.4	771.7	494.54	-1246.3	817.58	103.12	-1262.4	951.03	464.08	-1265.3	965.8	130.92	-1398.1	910.8	300.15	-1251.5	583.83	486.79	-1190.7	499.12	466.5	-1262.4	493.31	471.55	-1179.1	587.84	477.72	-1258.1	417.22	467.62	-1238.6	395.54	322.74	-1449.9	351.34	440.4	-1481.8	246.69	426.68	-1515	305.65	429.78	-1422	285.17	444.82	-1575.3	236.79	418.35	-1547.8	235.62	335.87	-1601	289.65	362.99	-1620	271.33	329.55	-1637.8	275.42	393.19	-1595.7	115.48	427.56	-1576.9	93.055	323.37	-1541.3	54.232	378.81	-1216.1	590.89	130.78	-1119.4	538.12	143.85	-1191.5	506.79	158.31	-1153.2	623.97	118.23	-1115.5	455.1	158.91	-1121.1	459.15	296.18	-1188.7	282.41	161.46	-1119.8	197.38	184.14	-1192.6	210.41	179.8	-1125.6	271.16	165.57	-1167.9	98.227	199.53	-1158.6	94.944	280	-1228	66.472	231.4	-1220.9	40.991	265.28	-1220.3	38.283	203.72	-1052.8	34.956	181.33	-1036.9	44.657	292.31	-974.64	60.779	247.24	-1315.3	1387	289.87	-1383.4	1135.3	310.96
55	0.225	-1110.2	1089.5	290.87	-1215.1	1327.1	430.29	-1230.9	1322.6	138.04	-1194.7	1614.8	275.16	-1155	909.76	406.56	-1137	913.56	197.6	-1360.7	950.96	346.6	-1369.6	964.22	272.92	-1235.7	772.88	494.33	-1241.5	818.46	102.88	-1257.5	951.89	463.81	-1259.9	966.82	130.62	-1392.9	911.67	299.7	-1242.4	584.77	487.13	-1181.1	500.99	467.47	-1252.9	494.27	472.08	-1170.7	589.85	478.53	-1246.9	418.41	468.43	-1226.9	396.61	323.41	-1438.4	352.92	440.43	-1470.1	248.04	426.69	-1503.8	307.18	429.51	-1411.1	286.72	445.15	-1564	238.66	418	-1536.1	237.13	335.6	-1589.4	291.26	362.11	-1608.2	272.79	328.67	-1626.7	277.32	392.34	-1584.7	117.55	427.95	-1565.3	94.247	324.07	-1530.1	55.31	380.09	-1213.1	591.56	130.72	-1116.8	537.98	143.68	-1189.2	507.24	158.17	-1149.8	624.09	118.06	-1113.6	454.87	158.78	-1119.6	458.88	296.03	-1187.8	282.66	161.45	-1119.2	197.24	184.04	-1191.7	210.87	179.51	-1124.7	271.05	165.46	-1167.8	98.316	199.57	-1158.5	94.984	279.96	-1228	66.549	231.44	-1220.9	41.056	265.29	-1220.3	38.388	203.73	-1052.8	34.98	181.34	-1036.8	44.652	292.34	-974.59	60.698	247.25	-1309.8	1387.9	289.31	-1378	1136.3	310.27
56	0.22917	-1104.8	1090.6	291.01	-1210.2	1328.3	430.18	-1225.3	1323.5	137.7	-1189.1	1615.9	274.63	-1149.6	910.94	406.28	-1131.7	914.41	197.32	-1355.6	951.9	346.18	-1364.3	965.17	272.53	-1230.1	774.13	494.14	-1236.7	819.32	102.67	-1252.6	952.82	463.58	-1254.6	967.82	130.29	-1387.7	912.59	299.26	-1233.3	585.8	487.46	-1171.6	502.96	468.39	-1243.4	495.34	472.59	-1162.3	591.94	479.3	-1235.8	419.73	469.21	-1215.4	397.85	324.05	-1427	354.42	440.41	-1458.3	249.28	426.67	-1492.4	308.62	429.22	-1400.1	288.22	445.44	-1552.5	240.29	417.59	-1524.4	238.45	335.31	-1577.9	292.52	361.18	-1596.5	273.82	327.75	-1615.6	278.8	391.43	-1573.3	119.35	428.34	-1553.1	95.241	324.74	-1518.4	56.396	381.36	-1210.2	592.24	130.68	-1114.2	537.83	143.56	-1187	507.71	158.05	-1146.6	624.21	117.94	-1111.8	454.65	158.71	-1118.2	458.62	295.92	-1186.8	282.91	161.46	-1118.7	197.11	183.95	-1190.8	211.34	179.2	-1123.9	270.96	165.37	-1167.7	98.41	199.61	-1158.4	95.025	279.93	-1227.9	66.632	231.48	-1220.8	41.123	265.31	-1220.3	38.502	203.74	-1052.8	35.001	181.35	-1036.8	44.644	292.37	-974.55	60.615	247.26	-1304.4	1388.9	288.78	-1372.6	1137.3	309.57
